<svg width="16" height="16" viewBox="0 0 16 16" fill="none" xmlns="http://www.w3.org/2000/svg">
<mask id="mask0_1948_18608" style="mask-type:alpha" maskUnits="userSpaceOnUse" x="2" y="1" width="11" height="14">
<path d="M9.92893 1H2.99558C2.44484 1 2 1.45078 2 2.00685V13.9932C2 14.5501 2.44574 15 2.99558 15H12.0044C12.5552 15 13 14.5492 13 13.9932V4.07107L9.92893 1V1Z" fill="white"/>
</mask>
<g mask="url(#mask0_1948_18608)">
<path d="M9.92893 1H2.99558C2.44484 1 2 1.45078 2 2.00685V13.9932C2 14.5501 2.44574 15 2.99558 15H12.0044C12.5552 15 13 14.5492 13 13.9932V4.07107L9.92893 1V1Z" fill="#6557D2"/>
<g style="mix-blend-mode:multiply" opacity="0.3">
<path d="M13 -1H11C9.89543 -1 9 -0.10457 9 1V3C9 4.10457 9.89543 5 11 5H13C14.1046 5 15 4.10457 15 3V1C15 -0.10457 14.1046 -1 13 -1Z" fill="black"/>
</g>
</g>
</svg>
